<svg width="31" height="26" viewBox="0 0 31 26" fill="none" xmlns="http://www.w3.org/2000/svg">
    <path d="M30.524 3.58266C29.4107 4.076 28.2147 4.40933 26.9574 4.56C28.24 3.792 29.224 2.57333 29.688 1.12266C28.488 1.83466 27.1587 2.352 25.744 2.62933C24.6107 1.424 22.9974 0.669331 21.2107 0.669331C17.7814 0.669331 15 3.45066 15 6.88266C15 7.368 15.056 7.84 15.16 8.296C9.99603 8.036 5.42136 5.56266 2.35736 1.80533C1.82403 2.72533 1.51736 3.792 1.51736 4.928C1.51736 7.08266 2.61469 8.98533 4.28003 10.0987C3.26136 10.0653 2.30403 9.78666 1.46669 9.32133V9.40133C1.46669 12.4107 3.60669 14.9213 6.44936 15.492C5.92669 15.6333 5.37869 15.708 4.81336 15.708C4.41336 15.708 4.02269 15.6707 3.64403 15.5987C4.43469 18.0653 6.72803 19.8627 9.44669 19.9107C7.32003 21.5773 4.64136 22.5707 1.73203 22.5707C1.23069 22.5707 0.736026 22.5413 0.249359 22.484C2.99869 24.248 6.26269 25.2747 9.76936 25.2747C21.196 25.2747 27.4427 15.8107 27.4427 7.60266C27.4427 7.336 27.436 7.06666 27.424 6.8C28.6374 5.92266 29.6907 4.83066 30.5214 3.58666L30.524 3.58266Z" fill="#1DA1F2"/>
</svg>
